<svg width="45" height="45" xmlns="http://www.w3.org/2000/svg">
 <g>
  <path d="m21.45502,2.0369a34.819,34.819 0 0 1 -19.7,19.949a1.528,1.528 0 0 0 -0.758,1.515q0,0.379 0.758,0.758a34.823,34.823 0 0 1 19.952,19.7a1.524,1.524 0 0 0 1.515,0.758c0.25,0 0.5,-0.253 0.756,-0.505a34.821,34.821 0 0 1 19.7,-19.949a1.527,1.527 0 0 0 0.759,-1.515q0,-0.379 -0.759,-0.758a34.538,34.538 0 0 1 -19.951,-19.949a1.524,1.524 0 0 0 -1.515,-0.758c-0.251,0.249 -0.502,0.497 -0.757,0.754z" fill="#20a0ff" id="svg_5"/>
 </g>
</svg>
